<svg width="1280" height="720" viewBox="0 0 1280 720" fill="none" xmlns="http://www.w3.org/2000/svg">
  <defs>
    <linearGradient id="bg" x1="180" y1="44" x2="1136" y2="674" gradientUnits="userSpaceOnUse">
      <stop stop-color="#FBFBFD"/>
      <stop offset="1" stop-color="#F2F4F7"/>
    </linearGradient>
    <radialGradient id="warm" cx="0" cy="0" r="1" gradientUnits="userSpaceOnUse" gradientTransform="translate(1038 124) rotate(148) scale(378 238)">
      <stop stop-color="#FFE8C2" stop-opacity="0.92"/>
      <stop offset="1" stop-color="#FFE8C2" stop-opacity="0"/>
    </radialGradient>
    <radialGradient id="cool" cx="0" cy="0" r="1" gradientUnits="userSpaceOnUse" gradientTransform="translate(206 120) rotate(44) scale(356 246)">
      <stop stop-color="#E7F0FF" stop-opacity="0.92"/>
      <stop offset="1" stop-color="#E7F0FF" stop-opacity="0"/>
    </radialGradient>
    <linearGradient id="boardBg" x1="0" y1="0" x2="1" y2="1">
      <stop stop-color="#F7D48A"/>
      <stop offset="1" stop-color="#E8B864"/>
    </linearGradient>
    <filter id="shadowLarge" x="0" y="0" width="1280" height="720" filterUnits="userSpaceOnUse" color-interpolation-filters="sRGB">
      <feDropShadow dx="0" dy="20" stdDeviation="26" flood-color="#111111" flood-opacity="0.08"/>
    </filter>
    <filter id="shadowSoft" x="0" y="0" width="1280" height="720" filterUnits="userSpaceOnUse" color-interpolation-filters="sRGB">
      <feDropShadow dx="0" dy="14" stdDeviation="18" flood-color="#111111" flood-opacity="0.07"/>
    </filter>
  </defs>

  <rect width="1280" height="720" rx="36" fill="url(#bg)"/>
  <rect width="1280" height="720" rx="36" fill="url(#warm)"/>
  <rect width="1280" height="720" rx="36" fill="url(#cool)"/>

  <text x="96" y="106" font-family="SF Pro Display, PingFang SC, Hiragino Sans GB, Microsoft YaHei, sans-serif" font-size="20" font-weight="600" letter-spacing="0.04em" fill="#6E6E73">LizzieYzy Next</text>
  <text x="96" y="206" font-family="SF Pro Display, PingFang SC, Hiragino Sans GB, Microsoft YaHei, sans-serif" font-size="72" font-weight="700" fill="#1D1D1F">让 lizzieyzy</text>
  <text x="96" y="286" font-family="SF Pro Display, PingFang SC, Hiragino Sans GB, Microsoft YaHei, sans-serif" font-size="72" font-weight="700" fill="#1D1D1F">重新变得好用</text>
  <text x="96" y="356" font-family="SF Pro Text, PingFang SC, Hiragino Sans GB, Microsoft YaHei, sans-serif" font-size="28" font-weight="500" fill="#6E6E73">野狐棋谱获取重新可用，</text>
  <text x="96" y="396" font-family="SF Pro Text, PingFang SC, Hiragino Sans GB, Microsoft YaHei, sans-serif" font-size="28" font-weight="500" fill="#6E6E73">下载安装后就能继续分析和复盘。</text>

  <rect x="96" y="450" width="164" height="46" rx="23" fill="#173C34"/>
  <text x="178" y="480" text-anchor="middle" font-family="SF Pro Text, PingFang SC, Hiragino Sans GB, Microsoft YaHei, sans-serif" font-size="18" font-weight="600" fill="#FFFFFF">野狐昵称</text>
  <rect x="278" y="450" width="186" height="46" rx="23" fill="#234A7A"/>
  <text x="371" y="480" text-anchor="middle" font-family="SF Pro Text, PingFang SC, Hiragino Sans GB, Microsoft YaHei, sans-serif" font-size="18" font-weight="600" fill="#FFFFFF">Windows 安装器</text>
  <rect x="482" y="450" width="170" height="46" rx="23" fill="#7B4B1C"/>
  <text x="567" y="480" text-anchor="middle" font-family="SF Pro Text, PingFang SC, Hiragino Sans GB, Microsoft YaHei, sans-serif" font-size="18" font-weight="600" fill="#FFFFFF">内置 KataGo</text>

  <text x="96" y="544" font-family="SF Pro Text, PingFang SC, Hiragino Sans GB, Microsoft YaHei, sans-serif" font-size="22" font-weight="600" fill="#4C5057">Windows / macOS / Linux</text>
  <text x="96" y="580" font-family="SF Pro Text, PingFang SC, Hiragino Sans GB, Microsoft YaHei, sans-serif" font-size="18" font-weight="500" fill="#7A7D84">打开程序，输入野狐昵称，继续抓谱、分析、复盘。</text>

  <g filter="url(#shadowLarge)">
    <rect x="738" y="72" width="462" height="576" rx="38" fill="#FFFFFF" fill-opacity="0.9" stroke="#EFEFF3"/>
  </g>

  <rect x="778" y="108" width="124" height="34" rx="17" fill="#173C34"/>
  <text x="840" y="131" text-anchor="middle" font-family="SF Pro Text, PingFang SC, Hiragino Sans GB, Microsoft YaHei, sans-serif" font-size="16" font-weight="600" fill="#FFFFFF">维护继续</text>

  <rect x="778" y="164" width="382" height="58" rx="29" fill="#F5F5F7"/>
  <text x="969" y="201" text-anchor="middle" font-family="SF Pro Text, PingFang SC, Hiragino Sans GB, Microsoft YaHei, sans-serif" font-size="24" font-weight="600" fill="#1D1D1F">野狐棋谱（输入昵称获取）</text>

  <g filter="url(#shadowSoft)">
    <rect x="810" y="248" width="316" height="244" rx="30" fill="url(#boardBg)"/>
  </g>
  <g opacity="0.54" stroke="#7E5627" stroke-width="2.2">
    <path d="M842 280H1094"/>
    <path d="M842 311.5H1094"/>
    <path d="M842 343H1094"/>
    <path d="M842 374.5H1094"/>
    <path d="M842 406H1094"/>
    <path d="M842 437.5H1094"/>
    <path d="M842 469H1094"/>
    <path d="M842 280V469"/>
    <path d="M873.5 280V469"/>
    <path d="M905 280V469"/>
    <path d="M936.5 280V469"/>
    <path d="M968 280V469"/>
    <path d="M999.5 280V469"/>
    <path d="M1031 280V469"/>
    <path d="M1062.5 280V469"/>
    <path d="M1094 280V469"/>
  </g>
  <circle cx="905" cy="343" r="19" fill="#141414"/>
  <circle cx="936.5" cy="374.5" r="19" fill="#F8F8F8" stroke="#D9D9DE" stroke-width="2.6"/>
  <circle cx="968" cy="343" r="19" fill="#141414"/>
  <circle cx="1031" cy="311.5" r="19" fill="#F8F8F8" stroke="#D9D9DE" stroke-width="2.6"/>
  <circle cx="1031" cy="406" r="19" fill="#141414"/>
  <circle cx="999.5" cy="374.5" r="19" fill="#EAF5EA" stroke="#5C9B63" stroke-width="3.2"/>

  <rect x="790" y="522" width="124" height="90" rx="24" fill="#F5F5F7"/>
  <text x="822" y="556" font-family="SF Pro Text, PingFang SC, Hiragino Sans GB, Microsoft YaHei, sans-serif" font-size="18" font-weight="600" fill="#1D1D1F">Windows</text>
  <text x="822" y="584" font-family="SF Pro Text, PingFang SC, Hiragino Sans GB, Microsoft YaHei, sans-serif" font-size="16" font-weight="500" fill="#6E6E73">先装</text>
  <text x="822" y="608" font-family="SF Pro Text, PingFang SC, Hiragino Sans GB, Microsoft YaHei, sans-serif" font-size="16" font-weight="500" fill="#6E6E73">这个</text>

  <rect x="928" y="522" width="124" height="90" rx="24" fill="#F5F5F7"/>
  <text x="960" y="556" font-family="SF Pro Text, PingFang SC, Hiragino Sans GB, Microsoft YaHei, sans-serif" font-size="18" font-weight="600" fill="#1D1D1F">KataGo</text>
  <text x="960" y="584" font-family="SF Pro Text, PingFang SC, Hiragino Sans GB, Microsoft YaHei, sans-serif" font-size="16" font-weight="500" fill="#6E6E73">已经</text>
  <text x="960" y="608" font-family="SF Pro Text, PingFang SC, Hiragino Sans GB, Microsoft YaHei, sans-serif" font-size="16" font-weight="500" fill="#6E6E73">内置</text>

  <rect x="1066" y="522" width="104" height="90" rx="24" fill="#F5F5F7"/>
  <text x="1092" y="556" font-family="SF Pro Text, PingFang SC, Hiragino Sans GB, Microsoft YaHei, sans-serif" font-size="18" font-weight="600" fill="#1D1D1F">直接</text>
  <text x="1092" y="584" font-family="SF Pro Text, PingFang SC, Hiragino Sans GB, Microsoft YaHei, sans-serif" font-size="16" font-weight="500" fill="#6E6E73">输入昵称</text>
  <text x="1092" y="608" font-family="SF Pro Text, PingFang SC, Hiragino Sans GB, Microsoft YaHei, sans-serif" font-size="16" font-weight="500" fill="#6E6E73">继续复盘</text>
</svg>
