<svg width="1280" height="640" viewBox="0 0 1280 640" fill="none" xmlns="http://www.w3.org/2000/svg">
  <defs>
    <linearGradient id="bg" x1="184" y1="46" x2="1136" y2="592" gradientUnits="userSpaceOnUse">
      <stop stop-color="#FBFBFD"/>
      <stop offset="1" stop-color="#F2F4F7"/>
    </linearGradient>
    <radialGradient id="warm" cx="0" cy="0" r="1" gradientUnits="userSpaceOnUse" gradientTransform="translate(1028 104) rotate(148) scale(360 220)">
      <stop stop-color="#FFE8C2" stop-opacity="0.92"/>
      <stop offset="1" stop-color="#FFE8C2" stop-opacity="0"/>
    </radialGradient>
    <radialGradient id="cool" cx="0" cy="0" r="1" gradientUnits="userSpaceOnUse" gradientTransform="translate(202 112) rotate(44) scale(340 240)">
      <stop stop-color="#E7F0FF" stop-opacity="0.92"/>
      <stop offset="1" stop-color="#E7F0FF" stop-opacity="0"/>
    </radialGradient>
    <linearGradient id="boardBg" x1="0" y1="0" x2="1" y2="1">
      <stop stop-color="#F7D48A"/>
      <stop offset="1" stop-color="#E8B864"/>
    </linearGradient>
    <filter id="shadow" x="0" y="0" width="1280" height="640" filterUnits="userSpaceOnUse" color-interpolation-filters="sRGB">
      <feDropShadow dx="0" dy="18" stdDeviation="24" flood-color="#111111" flood-opacity="0.09"/>
    </filter>
  </defs>

  <rect width="1280" height="640" rx="32" fill="url(#bg)"/>
  <rect width="1280" height="640" rx="32" fill="url(#warm)"/>
  <rect width="1280" height="640" rx="32" fill="url(#cool)"/>

  <text x="96" y="108" font-family="SF Pro Display, PingFang SC, Hiragino Sans GB, Microsoft YaHei, sans-serif" font-size="20" font-weight="600" letter-spacing="0.04em" fill="#6E6E73">LizzieYzy Next-FoxUID</text>
  <text x="96" y="206" font-family="SF Pro Display, PingFang SC, Hiragino Sans GB, Microsoft YaHei, sans-serif" font-size="68" font-weight="700" fill="#1D1D1F">让 lizzieyzy</text>
  <text x="96" y="282" font-family="SF Pro Display, PingFang SC, Hiragino Sans GB, Microsoft YaHei, sans-serif" font-size="68" font-weight="700" fill="#1D1D1F">重新变得好用</text>
  <text x="96" y="350" font-family="SF Pro Text, PingFang SC, Hiragino Sans GB, Microsoft YaHei, sans-serif" font-size="28" font-weight="500" fill="#6E6E73">野狐抓谱已经修回来，</text>
  <text x="96" y="390" font-family="SF Pro Text, PingFang SC, Hiragino Sans GB, Microsoft YaHei, sans-serif" font-size="28" font-weight="500" fill="#6E6E73">安装、启动和内置 KataGo 也更省事。</text>

  <rect x="96" y="448" width="164" height="46" rx="23" fill="#173C34"/>
  <text x="178" y="478" text-anchor="middle" font-family="SF Pro Text, PingFang SC, Hiragino Sans GB, Microsoft YaHei, sans-serif" font-size="18" font-weight="600" fill="#FFFFFF">野狐昵称</text>
  <rect x="278" y="448" width="186" height="46" rx="23" fill="#234A7A"/>
  <text x="371" y="478" text-anchor="middle" font-family="SF Pro Text, PingFang SC, Hiragino Sans GB, Microsoft YaHei, sans-serif" font-size="18" font-weight="600" fill="#FFFFFF">Windows 安装器</text>
  <rect x="482" y="448" width="170" height="46" rx="23" fill="#7B4B1C"/>
  <text x="567" y="478" text-anchor="middle" font-family="SF Pro Text, PingFang SC, Hiragino Sans GB, Microsoft YaHei, sans-serif" font-size="18" font-weight="600" fill="#FFFFFF">内置 KataGo</text>

  <g filter="url(#shadow)">
    <rect x="736" y="72" width="464" height="496" rx="36" fill="#FFFFFF" fill-opacity="0.9" stroke="#EFEFF3"/>
  </g>

  <rect x="780" y="110" width="376" height="58" rx="29" fill="#F5F5F7"/>
  <text x="968" y="147" text-anchor="middle" font-family="SF Pro Text, PingFang SC, Hiragino Sans GB, Microsoft YaHei, sans-serif" font-size="24" font-weight="600" fill="#1D1D1F">野狐棋谱（输入野狐昵称获取）</text>

  <g filter="url(#shadow)">
    <rect x="810" y="194" width="316" height="246" rx="30" fill="url(#boardBg)"/>
  </g>
  <g opacity="0.54" stroke="#7E5627" stroke-width="2.2">
    <path d="M842 226H1094"/>
    <path d="M842 257.5H1094"/>
    <path d="M842 289H1094"/>
    <path d="M842 320.5H1094"/>
    <path d="M842 352H1094"/>
    <path d="M842 383.5H1094"/>
    <path d="M842 415H1094"/>
    <path d="M842 226V415"/>
    <path d="M873.5 226V415"/>
    <path d="M905 226V415"/>
    <path d="M936.5 226V415"/>
    <path d="M968 226V415"/>
    <path d="M999.5 226V415"/>
    <path d="M1031 226V415"/>
    <path d="M1062.5 226V415"/>
    <path d="M1094 226V415"/>
  </g>
  <circle cx="905" cy="289" r="19" fill="#141414"/>
  <circle cx="936.5" cy="320.5" r="19" fill="#F8F8F8" stroke="#D9D9DE" stroke-width="2.6"/>
  <circle cx="968" cy="289" r="19" fill="#141414"/>
  <circle cx="1031" cy="257.5" r="19" fill="#F8F8F8" stroke="#D9D9DE" stroke-width="2.6"/>
  <circle cx="1031" cy="352" r="19" fill="#141414"/>
  <circle cx="999.5" cy="320.5" r="19" fill="#EAF5EA" stroke="#5C9B63" stroke-width="3.2"/>

  <rect x="796" y="468" width="344" height="72" rx="24" fill="#F5F5F7"/>
  <text x="832" y="500" font-family="SF Pro Text, PingFang SC, Hiragino Sans GB, Microsoft YaHei, sans-serif" font-size="24" font-weight="600" fill="#1D1D1F">下载、打开、输入野狐昵称</text>
  <text x="832" y="528" font-family="SF Pro Text, PingFang SC, Hiragino Sans GB, Microsoft YaHei, sans-serif" font-size="18" font-weight="500" fill="#6E6E73">继续抓谱、分析、复盘。</text>
</svg>
